<svg width="190" height="80" viewBox="0 0 190 80" fill="none" xmlns="http://www.w3.org/2000/svg">
<path d="M55.844 31.2L56.228 35.808C55.1187 36.256 53.6893 36.48 51.94 36.48C48.9533 36.48 46.788 35.7867 45.444 34.4C44.1213 32.992 43.46 30.8587 43.46 28C43.46 25.1413 44.1213 23.0187 45.444 21.632C46.788 20.224 48.9533 19.52 51.94 19.52C53.796 19.52 55.2253 19.744 56.228 20.192L55.46 24.544C54.3293 24.3093 53.4333 24.192 52.772 24.192C51.1507 24.192 50.34 24.7573 50.34 25.888V31.616C50.9587 31.744 51.748 31.808 52.708 31.808C53.6893 31.808 54.7347 31.6053 55.844 31.2ZM60.1315 34.4C58.8088 32.992 58.1475 30.8587 58.1475 28C58.1475 25.1413 58.8088 23.0187 60.1315 21.632C61.4755 20.224 63.6408 19.52 66.6275 19.52C69.6142 19.52 71.7688 20.224 73.0915 21.632C74.4355 23.0187 75.1075 25.1413 75.1075 28C75.1075 30.8587 74.4355 32.992 73.0915 34.4C71.7688 35.7867 69.6142 36.48 66.6275 36.48C63.6408 36.48 61.4755 35.7867 60.1315 34.4ZM65.0275 25.536V31.808H66.0195C66.7875 31.808 67.3422 31.7333 67.6835 31.584C68.0462 31.4133 68.2275 31.04 68.2275 30.464V24.192H67.2355C66.4675 24.192 65.9022 24.2773 65.5395 24.448C65.1982 24.5973 65.0275 24.96 65.0275 25.536ZM80.8625 20L82.4625 21.6C84.4465 20.2133 86.5798 19.52 88.8625 19.52C90.3558 19.52 91.5292 19.8507 92.3825 20.512C93.2358 21.152 93.6625 22.048 93.6625 23.2V36H87.2625V24.8H86.2705C85.5452 24.8 84.9905 24.8853 84.6065 25.056C84.2438 25.2053 84.0625 25.5253 84.0625 26.016V36H77.6625V20H80.8625ZM95.7338 24.128V20H97.3338V17.44L103.734 15.84V20H105.942V24.128H103.734V31.424C104.288 31.5307 104.918 31.6053 105.622 31.648L105.334 36.352C102.411 36.352 100.512 36.192 99.6378 35.872C98.5498 35.488 97.8671 34.976 97.5898 34.336C97.4191 33.952 97.3338 33.504 97.3338 32.992V24.128H95.7338ZM108.35 20H111.55L113.31 21.792C114.569 20.64 116.147 19.8827 118.046 19.52L118.43 25.568C117.918 25.5893 117.246 25.7173 116.414 25.952C115.603 26.1867 115.049 26.4853 114.75 26.848V36H108.35V20ZM121.694 34.4C120.371 32.992 119.71 30.8587 119.71 28C119.71 25.1413 120.371 23.0187 121.694 21.632C123.038 20.224 125.203 19.52 128.19 19.52C131.177 19.52 133.331 20.224 134.654 21.632C135.998 23.0187 136.67 25.1413 136.67 28C136.67 30.8587 135.998 32.992 134.654 34.4C133.331 35.7867 131.177 36.48 128.19 36.48C125.203 36.48 123.038 35.7867 121.694 34.4ZM126.59 25.536V31.808H127.582C128.35 31.808 128.905 31.7333 129.246 31.584C129.609 31.4133 129.79 31.04 129.79 30.464V24.192H128.798C128.03 24.192 127.465 24.2773 127.102 24.448C126.761 24.5973 126.59 24.96 126.59 25.536ZM145.625 14.72V31.424C146.308 31.552 146.83 31.6267 147.193 31.648L146.905 36.352C144.174 36.352 142.372 36.192 141.497 35.872C140.409 35.4667 139.737 34.9547 139.481 34.336C139.31 33.952 139.225 33.504 139.225 32.992V15.2L145.625 14.72Z" fill="#00AA13"/>
<path d="M12.8454 68.32L13.6774 63.552C15.4907 64.1707 17.6134 64.48 20.0454 64.48C20.7707 64.48 21.2827 64.4587 21.5814 64.416V63.296C19.6827 63.296 18.4347 63.2213 17.8374 63.072C17.2614 62.9013 16.8774 62.7413 16.6854 62.592C16.5147 62.4213 16.408 62.2827 16.3654 62.176C16.344 62.0693 16.3334 61.92 16.3334 61.728L17.2934 58.976C15.7574 58.6987 14.584 58.1227 13.7734 57.248C12.984 56.3733 12.5894 55.008 12.5894 53.152C12.5894 51.2747 13.2187 49.8667 14.4774 48.928C15.736 47.9893 17.784 47.52 20.6214 47.52C21.6454 47.52 22.552 47.584 23.3414 47.712L26.1254 45.568L29.4854 48.8L27.6614 50.944C27.9387 51.6907 28.0774 52.6507 28.0774 53.824C28.0774 55.5093 27.6507 56.768 26.7974 57.6C25.9654 58.4107 24.472 58.9013 22.3174 59.072L22.1894 59.84C24.4934 59.968 26.1147 60.32 27.0534 60.896C28.0134 61.4507 28.4934 62.4853 28.4934 64C28.4934 66.5813 27.2454 68.1813 24.7494 68.8C23.512 69.12 21.8374 69.28 19.7254 69.28C17.6347 69.28 15.3414 68.96 12.8454 68.32ZM18.6054 53.12V55.2H19.5974C20.3654 55.2 20.92 55.1253 21.2614 54.976C21.624 54.8053 21.8054 54.432 21.8054 53.856V51.776H20.8134C20.0454 51.776 19.48 51.8613 19.1174 52.032C18.776 52.1813 18.6054 52.544 18.6054 53.12ZM30.8656 48H34.0656L35.8256 49.792C37.0843 48.64 38.663 47.8827 40.5616 47.52L40.9456 53.568C40.4336 53.5893 39.7616 53.7173 38.9296 53.952C38.119 54.1867 37.5643 54.4853 37.2656 54.848V64H30.8656V48ZM49.1056 58.56V59.68C49.7456 59.744 50.3856 59.776 51.0256 59.776C53.0096 59.776 55.015 59.456 57.0416 58.816L57.8096 63.52C55.4203 64.16 53.0523 64.48 50.7056 64.48C47.719 64.48 45.5536 63.7867 44.2096 62.4C42.887 60.992 42.2256 58.8587 42.2256 56C42.2256 53.1413 42.887 51.0187 44.2096 49.632C45.5536 48.224 47.7083 47.52 50.6736 47.52C53.6603 47.52 55.719 47.9253 56.8496 48.736C57.9803 49.5467 58.5456 51.0613 58.5456 53.28C58.5456 55.1573 57.863 56.512 56.4976 57.344C55.1536 58.1547 52.6896 58.56 49.1056 58.56ZM49.1056 53.536V54.848H50.4176C51.1856 54.848 51.7403 54.7733 52.0816 54.624C52.4443 54.4533 52.6256 54.08 52.6256 53.504V52.192H51.3136C50.5456 52.192 49.9803 52.2773 49.6176 52.448C49.2763 52.5973 49.1056 52.96 49.1056 53.536ZM67.1994 58.56V59.68C67.8394 59.744 68.4794 59.776 69.1194 59.776C71.1034 59.776 73.1087 59.456 75.1354 58.816L75.9034 63.52C73.514 64.16 71.146 64.48 68.7994 64.48C65.8127 64.48 63.6474 63.7867 62.3034 62.4C60.9807 60.992 60.3194 58.8587 60.3194 56C60.3194 53.1413 60.9807 51.0187 62.3034 49.632C63.6474 48.224 65.802 47.52 68.7674 47.52C71.754 47.52 73.8127 47.9253 74.9434 48.736C76.074 49.5467 76.6394 51.0613 76.6394 53.28C76.6394 55.1573 75.9567 56.512 74.5914 57.344C73.2474 58.1547 70.7834 58.56 67.1994 58.56ZM67.1994 53.536V54.848H68.5114C69.2794 54.848 69.834 54.7733 70.1754 54.624C70.538 54.4533 70.7194 54.08 70.7194 53.504V52.192H69.4074C68.6394 52.192 68.074 52.2773 67.7114 52.448C67.37 52.5973 67.1994 52.96 67.1994 53.536ZM94.8931 64H91.6931L90.3171 62.656C89.3785 63.872 87.7038 64.48 85.2931 64.48C83.9918 64.48 82.8718 64.2347 81.9331 63.744C80.9945 63.2533 80.2798 62.5813 79.7891 61.728C78.8718 60.128 78.4131 58.2187 78.4131 56C78.4131 53.2907 79.0105 51.2427 80.2051 49.856C80.6531 49.3227 81.2718 48.8853 82.0611 48.544C82.8505 48.1813 83.7678 48 84.8131 48H88.4931V43.2L94.8931 42.72V64ZM85.2931 53.536V59.808H86.2851C87.0105 59.808 87.5438 59.744 87.8851 59.616C88.2478 59.4667 88.4505 59.1467 88.4931 58.656V52.192H87.5011C86.7331 52.192 86.1678 52.2773 85.8051 52.448C85.4638 52.5973 85.2931 52.96 85.2931 53.536ZM98.0844 64V48.8L104.484 48V64H98.0844ZM98.4364 46.976C97.967 46.6133 97.7324 45.952 97.7324 44.992C97.7324 44.032 97.967 43.36 98.4364 42.976C98.927 42.592 99.8764 42.4 101.284 42.4C102.714 42.4 103.663 42.592 104.132 42.976C104.623 43.36 104.868 44.032 104.868 44.992C104.868 45.952 104.623 46.6133 104.132 46.976C103.663 47.3387 102.714 47.52 101.284 47.52C99.8764 47.52 98.927 47.3387 98.4364 46.976ZM110.878 48L112.478 49.6C114.462 48.2133 116.595 47.52 118.878 47.52C120.371 47.52 121.545 47.8507 122.398 48.512C123.251 49.152 123.678 50.048 123.678 51.2V64H117.278V52.8H116.286C115.561 52.8 115.006 52.8853 114.622 53.056C114.259 53.2053 114.078 53.5253 114.078 54.016V64H107.678V48H110.878ZM132.949 58.56V59.68C133.589 59.744 134.229 59.776 134.869 59.776C136.853 59.776 138.859 59.456 140.885 58.816L141.653 63.52C139.264 64.16 136.896 64.48 134.549 64.48C131.563 64.48 129.397 63.7867 128.053 62.4C126.731 60.992 126.069 58.8587 126.069 56C126.069 53.1413 126.731 51.0187 128.053 49.632C129.397 48.224 131.552 47.52 134.517 47.52C137.504 47.52 139.563 47.9253 140.693 48.736C141.824 49.5467 142.389 51.0613 142.389 53.28C142.389 55.1573 141.707 56.512 140.341 57.344C138.997 58.1547 136.533 58.56 132.949 58.56ZM132.949 53.536V54.848H134.261C135.029 54.848 135.584 54.7733 135.925 54.624C136.288 54.4533 136.469 54.08 136.469 53.504V52.192H135.157C134.389 52.192 133.824 52.2773 133.461 52.448C133.12 52.5973 132.949 52.96 132.949 53.536ZM146.307 48.64C147.694 47.8933 149.582 47.52 151.971 47.52C154.36 47.52 156.558 47.8507 158.563 48.512L157.827 52.864C156.163 52.3947 154.499 52.16 152.835 52.16C152.323 52.16 151.598 52.2027 150.659 52.288V53.312C154.115 53.312 156.462 53.824 157.699 54.848C158.318 55.36 158.755 55.9253 159.011 56.544C159.267 57.1413 159.395 57.8773 159.395 58.752C159.395 59.6053 159.288 60.3733 159.075 61.056C158.883 61.7387 158.574 62.2827 158.147 62.688C157.742 63.0933 157.315 63.424 156.867 63.68C156.419 63.936 155.832 64.1173 155.107 64.224C153.976 64.3947 152.664 64.48 151.171 64.48C148.526 64.48 146.136 64.1707 144.003 63.552L144.803 59.008C146.595 59.5627 148.536 59.84 150.627 59.84C151.587 59.84 152.462 59.7973 153.251 59.712V58.688C149.838 58.688 147.48 58.24 146.179 57.344C144.899 56.448 144.259 54.9653 144.259 52.896C144.259 50.8053 144.942 49.3867 146.307 48.64ZM163.151 48.64C164.538 47.8933 166.426 47.52 168.815 47.52C171.204 47.52 173.402 47.8507 175.407 48.512L174.671 52.864C173.007 52.3947 171.343 52.16 169.679 52.16C169.167 52.16 168.442 52.2027 167.503 52.288V53.312C170.959 53.312 173.306 53.824 174.543 54.848C175.162 55.36 175.599 55.9253 175.855 56.544C176.111 57.1413 176.239 57.8773 176.239 58.752C176.239 59.6053 176.132 60.3733 175.919 61.056C175.727 61.7387 175.418 62.2827 174.991 62.688C174.586 63.0933 174.159 63.424 173.711 63.68C173.263 63.936 172.676 64.1173 171.951 64.224C170.82 64.3947 169.508 64.48 168.015 64.48C165.37 64.48 162.98 64.1707 160.847 63.552L161.647 59.008C163.439 59.5627 165.38 59.84 167.471 59.84C168.431 59.84 169.306 59.7973 170.095 59.712V58.688C166.682 58.688 164.324 58.24 163.023 57.344C161.743 56.448 161.103 54.9653 161.103 52.896C161.103 50.8053 161.786 49.3867 163.151 48.64Z" fill="#00AA13"/>
</svg>
