<svg width="63" height="63" viewBox="0 0 63 63" fill="none" xmlns="http://www.w3.org/2000/svg">
<path d="M28.1332 34.8L28.7092 41.712C27.0452 42.384 24.9012 42.72 22.2772 42.72C17.7972 42.72 14.5492 41.68 12.5332 39.6C10.5492 37.488 9.55719 34.288 9.55719 30C9.55719 25.712 10.5492 22.528 12.5332 20.448C14.5492 18.336 17.7972 17.28 22.2772 17.28C25.0612 17.28 27.2052 17.616 28.7092 18.288L27.5572 24.816C25.8612 24.464 24.5172 24.288 23.5252 24.288C21.0932 24.288 19.8772 25.136 19.8772 26.832V35.424C20.8052 35.616 21.9892 35.712 23.4292 35.712C24.9012 35.712 26.4692 35.408 28.1332 34.8ZM31.2524 48.48L32.5004 41.328C35.2204 42.256 38.4044 42.72 42.0524 42.72C43.1404 42.72 43.9084 42.688 44.3564 42.624V40.944C41.5084 40.944 39.6364 40.832 38.7404 40.608C37.8764 40.352 37.3004 40.112 37.0124 39.888C36.7564 39.632 36.5964 39.424 36.5324 39.264C36.5004 39.104 36.4844 38.88 36.4844 38.592L37.9244 34.464C35.6204 34.048 33.8604 33.184 32.6444 31.872C31.4604 30.56 30.8684 28.512 30.8684 25.728C30.8684 22.912 31.8124 20.8 33.7004 19.392C35.5884 17.984 38.6604 17.28 42.9164 17.28C44.4524 17.28 45.8124 17.376 46.9964 17.568L51.1724 14.352L56.2124 19.2L53.4764 22.416C53.8924 23.536 54.1004 24.976 54.1004 26.736C54.1004 29.264 53.4604 31.152 52.1804 32.4C50.9324 33.616 48.6924 34.352 45.4604 34.608L45.2684 35.76C48.7244 35.952 51.1564 36.48 52.5644 37.344C54.0044 38.176 54.7244 39.728 54.7244 42C54.7244 45.872 52.8524 48.272 49.1084 49.2C47.2524 49.68 44.7404 49.92 41.5724 49.92C38.4364 49.92 34.9964 49.44 31.2524 48.48ZM39.8924 25.68V28.8H41.3804C42.5324 28.8 43.3644 28.688 43.8764 28.464C44.4204 28.208 44.6924 27.648 44.6924 26.784V23.664H43.2044C42.0524 23.664 41.2044 23.792 40.6604 24.048C40.1484 24.272 39.8924 24.816 39.8924 25.68Z" fill="#00AA13"/>
</svg>
